# xmcd
#
# Track frame offsets:
# 150
# 1295
# 16769
# 26899
# 43700
# 53937
# 69070
# 81866
# 99043
# 109204
# 123105
#
# Disc length: 1818 seconds
#
#
# Revision: 0
# Processed by: cddbd v1.5.1PL0 Copyright (c) Steve Scherf et al.
# Submitted via: FreeRIP 2.12 
#
DISCID=7907180b
DTITLE=Marrano - Pornocorridos
DYEAR=1900
DGENRE=Norteño
TTITLE0=Aviso
TTITLE1=El Ansioso
TTITLE2=Por tus Pujidos nos Pescaron
TTITLE3=La Tragedia del Trasvesti
TTITLE4=La ChupaVergas
TTITLE5=Penetreitor
TTITLE6=Atrapado entre tus Tetas
TTITLE7=El Cara de Verga
TTITLE8=El Marrano Macanudo
TTITLE9=Que Paso ?
TTITLE10=Cachondo y Cochino
EXTD=
EXTT0=
EXTT1=
EXTT2=
EXTT3=
EXTT4=
EXTT5=
EXTT6=
EXTT7=
EXTT8=
EXTT9=
EXTT10=
PLAYORDER=
